<svg xmlns="http://www.w3.org/2000/svg" viewBox="0 0 32 32">
  <defs>
    <linearGradient id="g" x1="0%" y1="0%" x2="100%" y2="100%">
      <stop offset="0%" stop-color="#c9943a"/>
      <stop offset="100%" stop-color="#f7bc5e"/>
    </linearGradient>
  </defs>
  <circle cx="16" cy="16" r="15" fill="#1d1107" stroke="url(#g)" stroke-width="1"/>
  <!-- Book -->
  <path d="M5 20 Q5 14 10 13 L15 12 L15 22 Q10 23 7 24 Q5 23 5 20Z" fill="none" stroke="url(#g)" stroke-width="1.2"/>
  <path d="M27 20 Q27 14 22 13 L17 12 L17 22 Q22 23 25 24 Q27 23 27 20Z" fill="none" stroke="url(#g)" stroke-width="1.2"/>
  <line x1="16" y1="12" x2="16" y2="22" stroke="url(#g)" stroke-width="1.5"/>
  <!-- Crescent -->
  <path d="M16 4 Q21 5 22 9 Q18 7 16 9 Q14 7 10 9 Q11 5 16 4Z" fill="url(#g)"/>
  <path d="M16 5 Q20 6 21 9 Q17.5 7 16 8.5 Q14.5 7 11 9 Q12 6 16 5Z" fill="#1d1107"/>
  <path d="M14 4.2 Q21 5.5 22 9 Q18 6.5 15.5 8.5 Q18 6 14 4.2Z" fill="url(#g)"/>
</svg>